<?xml version="1.0" encoding="utf-8"?>
<!-- Generator: Adobe Illustrator 23.0.6, SVG Export Plug-In . SVG Version: 6.00 Build 0)  -->
<svg version="1.1" id="Capa_1" xmlns="http://www.w3.org/2000/svg" xmlns:xlink="http://www.w3.org/1999/xlink" x="0px" y="0px"
	 viewBox="0 0 1450.4 446" style="enable-background:new 0 0 1450.4 446;" xml:space="preserve">
<style type="text/css">
	.st0{fill:#222646;}
	.st1{fill:#FFFFFF;}
	.st2{fill:#FEFEFE;}
	.st3{fill:#76C5BB;}
	.st4{fill:#12B5BB;}
	.st5{fill:#B8E8EA;}
</style>
<g>
	<path class="st0" d="M1198.5,236.5c-0.5,0.9-0.3,1.7-0.3,2.4c0.1,10.6,0,21.3-0.5,31.9c-0.8,16-1.6,32-5.2,47.7
		c-6.8,29.5-17.6,57.5-35.9,82c-11.6,15.5-25.8,27.9-43.5,35.9c-13,5.9-26.6,8.9-40.8,9.5c-18.1,0.7-35.9-1.5-52.8-8
		c-34.4-13.2-56.2-38-65.2-73.5c-7.2-28.2-6.4-56.3,4.4-83.6c14-35.7,40.5-56.6,78.3-63.3c15.2-2.7,30.4-2.2,45.6-0.2
		c13.2,1.7,26.4,3.3,39.7,4.8c14,1.7,28,3,42,4.2c7.8,0.7,15.6,1.1,23.5,1.6c2.5,0.2,2.6,0.1,2.4-2.3c-0.9-8.9-1.7-17.7-2.8-26.6
		c-1.5-13.1-3.2-26.2-4.9-39.3c-1.1-8.9-2.4-17.9-3.5-26.8c-0.1-0.6-0.2-1.3-0.3-1.9c-0.1-2.4,1.1-4.1,3.2-4.5
		c2.3-0.4,4.1,0.9,4.5,3.5c0.7,4.5,1.3,8.9,1.9,13.4c1.7,12.9,3.4,25.8,5,38.7c1.8,14.6,3.5,29.2,4.7,43.9c0.2,2.5,0.2,2.5,2.8,2.7
		c24.2,1.4,48.3,0.6,72.5-1.2c17.6-1.3,35.1-2.8,52.6-4.8c16.4-2,32.9-3.6,49-7.3c24-5.5,46.1-15.4,67-28.4c0.9-0.6,1.8-1.2,2.7-1.7
		c2.1-1.1,4.2-0.7,5.4,1.1c1.2,1.8,0.8,3.9-1.1,5.4c-0.3,0.3-0.7,0.5-1.1,0.7c-22.3,14.2-46.1,24.9-71.9,30.8
		c-9.4,2.2-19,3.5-28.6,4.7c-12.3,1.6-24.5,3-36.8,4.3c-10,1.1-20.1,1.9-30.2,2.7c-14.5,1-28.9,1.9-43.5,2.3
		c-11.7,0.3-23.4-0.1-35.1-0.6C1200.6,236.4,1199.6,236.5,1198.5,236.5z M1190.4,257c0-5.9,0-11.8,0-17.7c0-0.4-0.1-0.9,0-1.3
		c0.2-1.5-0.5-2.2-2-2.2c-1.3,0-2.6-0.1-3.9-0.2c-7.3-0.5-14.6-0.9-21.9-1.5c-14-1.2-28-2.5-42-4.2c-13.2-1.6-26.5-3.1-39.7-4.8
		c-14.4-1.9-28.7-2.3-43,0.2c-35,6.2-59.7,25.5-72.4,58.8c-11.1,29-11.1,58.7-1,88.1c9.6,27.9,28.7,47.2,56.2,58
		c17.3,6.8,35.3,9,53.8,7.8c17.8-1.1,34.3-6.4,49.2-16.5c11.9-8.1,21.6-18.3,29.7-30.1c10.2-14.7,17.6-30.7,23.5-47.5
		c4.2-12.1,8-24.3,9.7-37C1188.8,290.3,1190.1,273.7,1190.4,257z"/>
	<path class="st0" d="M668,114.1c-11.3,0.8-21.9,2.9-32.6,5c-16.4,3.3-32.8,6.8-49.4,9.2c-8.3,1.2-16.6,2.2-25,2.5
		c-8,0.3-15.9-1-23.6-3.1c-2.8-0.8-5.4-2.1-7.9-3.7c-11.4-7.3-15.6-19.1-11.4-31.9c2.3-6.9,5.9-13.1,10.1-19
		c7.9-10.7,17.3-20,27.6-28.3c23.6-19.1,49.8-33.1,79.2-41.1c10.3-2.8,20.8-4.3,31.6-3.5c9.4,0.6,18.1,3.3,26,8.6
		c0.9,0.6,1.8,1.2,2.5,2c1.3,1.4,1.3,3.6,0.2,5.1c-1,1.4-2.8,2-4.6,1.3c-0.9-0.3-1.7-0.9-2.5-1.5c-7-4.8-14.7-7.3-23.2-7.9
		c-11.9-0.8-23.4,1.3-34.5,5.2c-29.6,10.4-56.4,25.6-80.4,45.9c-6.6,5.6-12.4,11.9-17.1,19.2c-4,6.2-6.8,12.9-7.9,20.2
		c-1.2,8.6,2.1,15.3,9.8,19.2c6,3,12.4,4,19,4.4c9.7,0.5,19.3-0.4,28.9-1.5c21.8-2.5,43.2-7.4,64.7-11.6c5.2-1,10.3-2,15.6-2.6
		c3.8-0.4,7.5-0.1,11.1,1.3c2.8,1.1,3.4,2.3,3,5.2c-0.4,3.5-2.2,6.2-4.9,8.4c-2.8,2.2-5.8,4-8.8,5.9c-19.9,12.4-39.7,24.9-58.3,39.1
		c-12.5,9.5-24.5,19.5-34.6,31.7c-9.1,11-16.6,22.9-20.7,36.8c-1.4,4.8-2.4,9.6-2.8,14.5c-0.3,3.6,0.2,7.1,1.4,10.4
		c2.1,5.8,6,9.5,11.8,11.5c7.6,2.5,15.2,2.4,22.9,0.9c11.3-2.3,21.6-7,31.5-12.7c25.2-14.3,47-32.7,66.4-54.2
		c15.9-17.7,29.8-37,42.2-57.3c0.4-0.7,0.9-1.5,1.4-2.2c1.4-2.1,2.7-2.5,4.6-1.5c2.1,1.1,3.1,3.1,2.4,5c-0.2,0.7-0.6,1.4-1,2
		c-16.2,26.7-34.6,51.6-56.9,73.4c-19.4,19-41,35-65.6,46.8c-8.5,4-17.2,7.3-26.5,9c-7.7,1.4-15.4,1.5-22.9-0.9
		c-11.2-3.7-18.1-12.5-19.1-24.3c-1.1-12.6,1.7-24.4,6.9-35.6c6.4-13.9,15.6-25.9,26.6-36.6c14.5-14.1,30.4-26.3,47.1-37.5
		c12.3-8.3,24.5-16.6,37.6-23.8c2.2-1.2,4.2-2.6,6.2-4C665.4,116.8,666.7,115.8,668,114.1z"/>
	<path class="st0" d="M851.5,103.8c3.9,0,7.8,0.3,11.6,0c21.4-1.7,41.8-7.6,61.1-16.9c9.6-4.6,19.2-9.2,29.3-12.4
		c24.2-7.6,48.2-7.2,72.2,0.8c7.9,2.6,15.8,4.8,24.2,5.1c5.4,0.2,10.7-0.3,15.9-2.2c7.9-2.9,13.4-8.3,16.4-16.2
		c1.2-3.2,3.1-4.4,5.4-3.6c2.4,0.9,3.1,3.1,1.9,6.3c-4.7,12.6-14,19.8-26.8,22.6c-10.1,2.2-20.1,1-30-1.7c-6-1.6-11.9-3.8-17.9-5.3
		c-23.5-6.1-46.4-3.9-68.8,5.3c-5.7,2.3-11.2,4.9-16.7,7.6c-16.9,8.3-34.5,14.2-53.1,17.1c-8,1.3-16,1.8-24.1,1.9
		c-2.7,0-2.7,0.1-3.3,2.7c-5.6,25.2-10.2,50.5-14,76c-3,20.3-5.6,40.6-7.4,61.1c-0.8,8.9-1.5,17.8-2,26.7c0,0.9-0.1,1.7-0.2,2.6
		c-0.4,2.5-1.8,3.6-4.2,3.5c-2.2-0.1-3.8-1.7-3.9-3.9c-0.1-2.4,0.1-4.7,0.3-7.1c1-13.8,2.2-27.6,3.7-41.4
		c1.7-15.2,3.7-30.3,6.1-45.3c1.1-7,2.3-14,3.4-21c0.1-0.8,0.1-1.7,0.2-2.6c-1.3,0.3-1.8,1.4-2.5,2.1c-5.7,6.7-12,12.9-18.5,18.9
		c-6.4,6-13.7,10.6-22.1,13.5c-6.6,2.3-12.7,1.4-18.4-2.4c-3.5-2.3-6.3-5.1-9-8.3c-0.7-0.8-1.2-1.8-2.3-2.3
		c-3.9,5.4-7.7,10.9-11.3,16.5c-0.4,0.6-0.8,1.3-1.2,1.9c-1.3,1.6-2.4,2.1-4.2,1.5c-1.8-0.6-2.8-1.9-2.9-3.8
		c-0.1-1.5,0.6-2.7,1.4-3.9c4-5.8,8-11.7,12.1-17.5c1.2-1.7,1.2-2.8,0.1-4.5c-2.6-4.1-5-8.3-7.4-12.5c-2.5-4.3-5-8.5-7.9-12.5
		c-1.6-2.2-1.3-4.5,0.5-6c1.8-1.5,4.1-1.1,5.9,1.1c1.3,1.6,2.5,3.3,3.5,5c3.3,5.4,6.6,10.8,9.8,16.3c0.7,1.1,1.1,2.3,2.2,3.2
		c0.9-0.5,1.3-1.4,1.8-2.1c5-7,9.7-14.2,14.1-21.6c1.7-2.8,3.2-3.5,5.4-2.4c2.2,1.1,3,3.9,1.7,6.4c-1.6,2.9-3.4,5.7-5.2,8.5
		c-3.7,5.5-7.5,11-11.3,16.5c-1.6,2.3-1.6,2.3,0.3,4.5c2.1,2.4,4.3,4.5,6.9,6.3c6.3,4.3,12.8,4.6,19.4,0.7
		c5.7-3.3,10.8-7.4,15.7-11.8c9.3-8.4,17.5-17.7,25.8-27c0.8-0.8,1.1-1.8,1.3-2.9c2-10.7,4.2-21.3,6.5-31.9c0.1-0.3,0-0.6,0-1.1
		c-5.6-0.6-11.1-1.1-16.6-2.1c-25.8-4.5-49.4-14.3-70.5-29.9c-0.9-0.7-1.9-1.4-2.7-2.2c-1.5-1.5-1.6-3.7-0.4-5.3
		c1.2-1.6,3.4-1.9,5.2-0.8c0.4,0.2,0.7,0.5,1,0.8c21.9,16.7,46.7,26.6,73.9,30.4c3.2,0.4,6.4,0.8,9.6,1.1c2.5,0.2,2.6,0.2,3.2-2.4
		c2.8-11.7,6-23.3,9.7-34.7c0.2-0.6,0.4-1.2,0.6-1.8c0.8-2.3,2.1-3.1,4.1-2.8c2.1,0.4,3.9,2.5,3.7,4.6c-0.1,1.2-0.5,2.3-0.9,3.4
		c-3.5,10.5-6.4,21.1-9,31.9C851.5,102.7,851.2,103.3,851.5,103.8z"/>
	<path class="st0" d="M865,159c2.4-3.1,4.3-6.7,6.9-9.7c1.2-1.4,2.3-2.8,3.6-4.1c1.9-1.9,3.9-1.9,5.9-0.1c0.4,0.4,0.7,0.8,1.1,1.2
		c14.3,15.2,38.3,15.6,53.4,3.8c12.7-9.9,27-10.5,41.7-4.1c0.7,0.3,1.3,0.7,2,1.1c2.5,1.5,3,2.7,1.9,4.6c-1.3,2.5-3.3,3.3-5.6,2.3
		c-0.9-0.4-1.7-0.9-2.6-1.4c-7.8-3.9-15.7-4.2-23.7-0.9c-6.6,2.7-12,7-16.2,12.8c-1.7,2.4-2.8,5.1-1.9,8.2c1.8,6.4,7.1,9.1,13.3,6.7
		c3.3-1.3,6.2-3.5,9-5.6c3.1-2.4,6-4.9,9-7.3c1.7-1.4,3.3-2.7,5.1-4c3.2-2.3,6.1-0.9,6.6,3c0.2,1.6,0.3,3.2,0.5,4.8
		c1.1,6.2,5,8.9,11.3,8c3.9-0.5,7.5-1.9,10.9-3.7c12.6-6.4,24.1-14.5,34.5-24c1-0.9,1.6-1.9,1.9-3.3c0.8-3.7,1.7-7.3,2.6-11
		c0.2-0.8,0.4-1.7,0.8-2.4c1-1.8,3.4-2.7,5.3-2c2,0.7,2.7,2.1,2.1,4.7c-1.5,6.5-3,13-4.5,19.4c-1.8,7.5-3.4,15.1-4.7,22.7
		c-0.2,1.2-0.3,2.5-0.5,3.8c1.2,0,1.3-0.8,1.7-1.4c5.7-8.2,11.5-16.4,17.2-24.5c1.4-1.9,3-3.7,4.6-5.4c4.6-4.8,11.6-5.3,16.9-1.1
		c4.9,4,8.8,8.8,12.4,13.9c2.5,3.6,4.8,7.4,7.8,10.7c2,2.3,4.1,4.4,6.5,6.2c3.2,2.3,6.7,3.2,10.7,2.6c5.7-0.8,11-2.8,16.2-5.2
		c13.8-6.4,25.1-16,34.9-27.6c0.7-0.8,1.3-1.7,2.1-2.4c1.7-1.6,4.2-1.7,5.8-0.3c1.7,1.4,1.9,3.3,0.4,5.5c-0.1,0.2-0.3,0.3-0.4,0.5
		c-12,14.5-26,26.5-43.1,34.7c-5.5,2.6-11.3,4-17.4,3.8c-7.8-0.2-14.2-3.1-19.1-9.1c-5.2-6.3-10.2-12.7-15.4-19.1
		c-1.5-1.8-3-3.6-4.9-5.1c-4-3-6.7-2.9-10.1,0.8c-3.2,3.6-5.8,7.7-8.2,11.9c-1.9,3.4-3.5,6.9-5.3,10.3c-2.4,4.6-5.1,9-8.3,13
		c-1.6,1.9-3.3,3.7-5.6,4.8c-3.1,1.5-5.1,0.8-6.7-2.2c-1.5-2.7-2-5.6-1.8-8.7c0.3-4.6,1-9.2,2-13.7c0.7-3.1,1.2-6.3,1.8-9.5
		c0.1-0.6,0.5-1.4-0.1-1.8c-0.8-0.6-1.4,0.3-1.9,0.7c-3.9,2.8-7.8,5.7-11.8,8.5c-8,5.5-16.7,9.8-26.1,12.1c-2.6,0.6-5.2,1.2-8,1
		c-5.6-0.4-9.8-2.9-12.3-8c-0.8-1.7-1.4-3.6-2.1-5.5c-1.5,0.7-2.5,1.8-3.6,2.7c-4.1,3.5-8.3,6.8-12.8,9.7c-4.2,2.6-8.6,4.4-13.6,4.5
		c-9.1,0.2-15-5.8-14.5-15c0.1-2.6,0.5-5.1,1.2-7.6c0.2-0.7,0.3-1.4,0.5-2.5c-8.4,2-16.5,2.2-24.5,0.3c-8-1.9-14.9-5.9-21.1-11.3
		c-1.5,1.3-2.5,2.8-3.5,4.3c-6.5,9.4-10.5,19.9-13.6,30.8c-0.9,3.1-1.5,6.3-2.3,9.4c-0.8,3.2-2.2,4.6-4.6,4.4
		c-2.4-0.3-3.6-2.1-3.6-5.5c0.1-6.2,0.7-12.4,1.5-18.6c1.8-13.9,4.8-27.5,8.4-41c0.2-0.6,0.3-1.2,0.5-1.9c0.8-2.4,1.9-3.1,4-2.8
		c2,0.3,3.6,1.9,3.8,3.8c0.1,1.1-0.2,2.1-0.5,3.2c-1.6,6.2-3.4,12.4-4.5,18.8c-0.2,0.5-0.5,1.1,0,1.4C864.7,160.1,865,159.4,865,159
		z M1029.8,163.6c-0.1-0.1-0.2-0.2-0.2-0.2c-0.1,0-0.2,0.1-0.2,0.2c0.1,0.1,0.2,0.2,0.3,0.2C1029.7,163.8,1029.8,163.7,1029.8,163.6
		z"/>
	<path class="st0" d="M473.4,148.8c7.8,6.3,13.5,14.3,19.5,22.2c3.6,4.7,7.2,9.3,11.3,13.6c4.7,4.9,10.2,8.1,17.2,8.6
		c1.3,0.1,1.9,0.5,1.9,1.9c0,1.6-0.9,1.6-2.1,1.6c-7.2,0-14.4,0-21.6,0c-1.5,0-2.7-0.5-3.8-1.5c-2.4-2.2-4.6-4.6-6.6-7
		c-4.2-5-8-10.4-11.8-15.7c-4.4-6.3-9.1-12.3-13.9-18.1c-3-3.7-6.8-4.1-11-3.9c-0.8,0-1.2,0.4-1.2,1.2c0,0.4,0,0.9,0,1.3
		c0,9.5,0.1,18.9,0.1,28.4c0,1.9,0.1,3.9,0.5,5.8c0.8,3.6,2.6,5.4,6.3,6c2.6,0.4,5.1,0.4,7.7,0.4c1.2,0,2.1,0.1,2,1.7
		c0,1.6-0.9,1.7-2.1,1.7c-13.9,0-27.7,0-41.6,0c-1.2,0-2-0.2-2-1.7c0-1.6,0.8-1.7,2-1.7c1.9,0,3.9-0.1,5.8-0.3
		c4-0.5,5.9-2.3,6.7-6.3c0.3-1.4,0.4-2.8,0.4-4.2c0.3-22.8,0.3-45.6,0-68.3c0-1.8-0.2-3.7-0.7-5.4c-0.7-2.2-2.1-3.7-4.4-4.2
		c-2.3-0.5-4.7-0.6-7-0.6c-1.1,0-2.1,0.1-2.1-1.6c0-1.5,0.6-1.8,1.9-1.8c13.4-0.8,26.8-1.6,40.3-1.1c6,0.2,12,1.1,17.7,3.2
		c4,1.5,7.5,3.6,10.5,6.6c7.8,7.9,8.3,20.4,1,29c-4.7,5.5-11,8.1-17.8,9.5C475.5,148,474.4,147.9,473.4,148.8z M451.3,125.2
		c0,5.8,0,11.6,0,17.4c0,4.7,0,4.7,4.6,4.4c5.1-0.4,10.3-0.2,15.3-1.6c6.2-1.7,10.2-5.6,11.9-11.9c1.5-5.5,1.4-11-0.1-16.5
		c-1.8-7-6.2-11.4-13.4-12.8c-5.3-1-10.6-1.4-16-1c-2.3,0.2-2.3,0.2-2.3,2.7C451.3,112.3,451.3,118.7,451.3,125.2z"/>
	<path class="st0" d="M1286.1,158.4c2.7-4.4,5.7-8.6,9.2-12.4c2.8-3,4.7-3.1,7.5-0.1c6,6.2,13.1,10.4,21.6,11.9
		c11.2,2,21.6-0.1,30.9-6.8c0.7-0.5,1.3-1.1,2.1-1.6c2.2-1.5,4.2-1.3,5.7,0.6c1.6,2,1.5,4.2-0.7,5.9c-6.7,5.3-14.2,8.9-22.7,10.1
		c-14.6,2.1-27.7-1.4-39-11c-0.4-0.3-0.8-0.6-1.4-1c-1.7,1.6-2.9,3.5-4.1,5.3c-6.2,9.2-10,19.4-13,30c-0.8,2.8-1.4,5.6-2.1,8.4
		c-0.2,0.7-0.3,1.5-0.6,2.2c-0.7,1.9-2.3,3-4.2,2.8c-1.9-0.2-3.4-1.6-3.6-3.6c-0.1-1.6-0.1-3.2,0-4.8c0.5-8.8,1.5-17.5,3-26.2
		c0.2-1.3,0.4-2.7,0.6-4.2c-1.5,0.2-2.2,1.3-3,2.1c-7.8,6.8-16,13.1-25.2,17.8c-8,4.1-16.5,6.9-25.6,6.6c-6-0.2-11.7-1.5-17-4.5
		c-8.9-5.1-13-14.2-10.7-24.1c1-4.5,3.1-8.5,6-12c5.3-6.5,12-10.7,20.1-12.5c4.5-1,7,0.9,7.7,5.5c0.4,3,0.1,5.9-1.3,8.5
		c-3.7,6.9-9.6,11.5-17,13.9c-2.3,0.7-4.7,0.6-7.3,0.1c-0.7,4.9,1.1,8.7,4.9,11.6c3.7,2.8,7.9,4.2,12.5,4.6
		c4.7,0.4,9.2-0.3,13.7-1.6c7.4-2,14.3-5.3,20.6-9.7c8.6-5.9,16.4-12.9,23.7-20.3c1.1-1.1,1.5-2.3,1.9-3.7c0.9-3.4,1.7-6.9,2.7-10.3
		c0.7-2.6,1.9-3.6,4-3.3c2.4,0.3,4.1,2.3,3.9,4.7c0,0.7-0.2,1.5-0.4,2.2c-1.5,6.2-3.1,12.5-4.6,18.7c-0.1,0.2-0.2,0.4-0.2,0.6
		c0,0.4-0.2,1,0.3,1.1c0.5,0.2,0.6-0.4,0.8-0.7C1285.9,159,1286,158.7,1286.1,158.4z M1204.6,157.3c1.9,0.4,3.2,0.4,4.5-0.3
		c3.4-1.8,5.9-4.6,7.8-7.8c0.4-0.6,0.8-1.3,0.1-2.1c-0.6-0.6-1.2-0.3-1.8-0.1c-0.8,0.3-1.6,0.6-2.3,1
		C1209.5,150.4,1207,153.5,1204.6,157.3z"/>
	<path class="st0" d="M181.3,109.9c-0.8,1.5-0.6,2.6-0.6,3.6c0,20.1,0,40.2,0,60.3c0,3.2,0.3,6.4,0.4,9.7c0.1,3.3,1.7,5.6,4.5,7.3
		c3,1.9,6.4,2.3,9.9,2.5c1.9,0.1,2.3,0.7,2,2.3c-0.1,0.8-0.5,1.1-1.3,1.1c-0.3,0-0.6,0-1,0c-10.3,0-20.6,0-31,0
		c-1.1,0-2.5,0.3-2.4-1.6c0-1.2,0.3-1.8,1.6-1.9c2.4-0.1,4.7-0.6,6.9-1.4c4.2-1.5,6.7-4.3,6.8-9.1c0.1-22.1,0.3-44.3-0.1-66.4
		c0-2.3-0.3-4.7-1-7c-0.8-2.7-2.4-4.4-5.4-4.8c-1.9-0.2-3.8-0.4-5.8-0.4c-1.2,0-1.8-0.3-1.8-1.6c0-1.2,0.4-1.8,1.7-1.7
		c1.5,0.1,3,0,4.5,0c6.2,0,12.5,0.1,18.7-0.1c2.4-0.1,3.9,0.7,5.3,2.6c17.2,23.1,34.5,46.1,51.8,69.1c0.6,0.8,1.3,1.6,2,2.5
		c0.7-0.8,0.5-1.6,0.5-2.3c0-17.9,0-35.9,0-53.8c0-2.3-0.1-4.5-0.5-6.7c-0.5-2.9-2.3-4.8-4.8-6c-2.9-1.3-5.9-1.9-9.1-2
		c-1.4,0-1.8-0.6-1.8-1.9c0-1.5,0.9-1.4,1.9-1.4c10.3,0,20.6,0,31,0c0.9,0,1.8,0,1.8,1.2c0,1.2,0,2-1.6,2.2
		c-2.5,0.3-4.9,0.8-7.2,1.8c-3.7,1.6-5.8,4.3-5.9,8.4c-0.1,2.5-0.3,4.9-0.3,7.4c0,24.3,0,48.6,0,72.9c0,0.8,0,1.5,0,2.3
		c0,0.7,0.3,1.7-0.7,1.9c-0.9,0.2-2,0.4-2.7-0.5c-0.6-0.7-1.2-1.5-1.8-2.3c-20.7-27.6-41.4-55.2-62-82.8
		C183.1,112.1,182.3,111.2,181.3,109.9z"/>
	<path class="st0" d="M146.3,124.3c-3.7,0.7-3.1,0.1-3.7-2.2c-0.8-3-1.7-6-3.1-8.8c-2.6-5.2-6.7-8.1-12.6-8.8
		c-7.5-0.8-15-0.4-22.5-0.6c-1.6,0-2,0.5-2,2c0.1,5.9,0,11.8,0,17.7c0,6,0,12,0,18.1c0,2.3,0,2.3,2.3,2.3c3.9,0,7.7,0,11.6-0.1
		c1.5,0,3-0.3,4.5-0.6c3.3-0.8,5.2-2.9,5.6-6.3c0.2-1.8,0.3-3.6,0.3-5.5c0-1.4,0.5-1.9,1.9-1.9c1.3,0,1.6,0.6,1.6,1.8
		c0,1.6,0,3.2,0,4.8c0,8.1,0,16.1,0,24.2c0,1.4-0.3,2.2-1.9,2.1c-1.1-0.1-1.5-0.5-1.5-1.6c0-1.7-0.1-3.4-0.3-5.1
		c-0.6-5.5-2.9-7.9-8.5-8.1c-4.5-0.2-9-0.1-13.5-0.2c-1.6-0.1-2,0.6-1.9,2.1c0.1,10.3-0.2,20.6,0.2,30.9c0.1,2.2,0.5,4.5,0.8,6.7
		c0.4,2.9,2.2,4.6,5,5.1c0.8,0.2,1.7,0.4,2.5,0.5c6.8,0.4,13.5,0.7,20.3-0.4c5-0.8,8.9-3.4,12.2-7.3c3.7-4.5,5.9-9.7,7.5-15.2
		c0.2-0.8,0.4-1.7,0.7-2.5c0.4-1.5,1.7-1,2.7-1c1.1,0,0.9,1,0.8,1.7c-0.6,8.7-1.2,17.4-1.7,26c-0.1,1.6-0.7,2.2-2.3,2.2
		c-7.6-0.1-15.3,0-22.9,0c-16.7,0-33.3,0-50,0c-0.9,0-1.7,0-2.6,0c-1.2,0-1.4-0.7-1.4-1.7c0-1,0.2-1.6,1.4-1.7
		c1.8-0.1,3.7-0.1,5.5-0.3c3.9-0.5,5.9-2.3,6.9-6.1c0.3-1.3,0.4-2.6,0.4-3.8c0.3-22.9,0.3-45.8,0-68.7c0-1.8-0.2-3.6-0.7-5.4
		c-0.7-2.4-2.1-3.9-4.6-4.4c-1.8-0.4-3.6-0.6-5.4-0.5c-1.2,0-1.4-0.6-1.4-1.6c0-1,0.1-1.7,1.3-1.7c0.6,0,1.3,0,1.9,0
		c20.5,0,41,0,61.6,0c0.6,0,1.3,0,1.9,0c1.1-0.1,1.5,0.5,1.5,1.5c0.6,7.1,1.3,14.1,1.9,21.2C146.4,123.7,146.3,124,146.3,124.3z"/>
	<path class="st0" d="M6.8,186.9c-1.6,2-2.3,4.5-2.8,7c-0.3,1.9-1.4,1.8-2.7,1.8c-1.6,0-1.3-1.1-1.3-2c0-8.9,0-17.8,0-26.8
		c0-0.9-0.3-2.1,1.2-2.1c1.3,0,2.4-0.1,2.8,1.8c0.6,3.4,1.6,6.7,2.9,9.9c1,2.5,2.2,4.9,3.7,7.1c7.5,11.7,20.3,13.1,29.4,10.2
		c9.5-3,14.9-13.2,12.2-22.5c-1.1-3.8-3.4-6.7-6.5-9c-4.3-3.2-9.2-5.6-14.1-7.7c-6.1-2.7-12.2-5.4-17.9-8.8c-6-3.7-10.1-8.9-12-15.7
		c-4.4-15.6,6.1-30.2,22.3-30.9c8.7-0.4,16.4,2,22.4,8.5c0.4,0.5,0.9,0.9,1.5,1.4c2-1.8,3-4.1,3.4-6.5c0.3-1.7,1.2-1.7,2.5-1.6
		c0.7,0,0.9,0.4,0.9,1c0,0.3,0,0.6,0,1c0,7,0,14,0,21c0,0.8,0.5,2-1.1,2.2c-1.4,0.2-2.1-0.3-2.5-1.7c-1.1-4.1-2.8-7.9-5.3-11.3
		c-4.3-5.9-9.9-9.7-17.4-10.4c-2.7-0.3-5.4,0-8,0.7c-9.8,2.7-13.7,15-7.3,23.2c1.7,2.2,4,3.9,6.3,5.5c4.2,2.8,8.8,5,13.4,7.1
		c5.8,2.6,11.5,5.3,17,8.4c16.5,9.2,16.7,33.2,4.7,43.8c-4.8,4.2-10.3,6.5-16.6,7.2c-11.6,1.2-21.7-1.8-29.8-10.4
		C7.9,187.3,7.6,186.8,6.8,186.9z"/>
	<path class="st0" d="M317.8,100.7c14.4,0,28.8,0,43.2,0c2.8,0,3-0.5,3,3c0.1,6,0.2,12,0.3,18.1c0,0.9,0.4,2-1.2,2.1
		c-1.3,0.1-1.9-0.3-2.1-1.7c-0.5-3-1.3-5.9-2.4-8.7c-0.9-2.2-2.1-4.2-3.8-5.9c-1.5-1.6-3.4-2.5-5.6-2.9c-4.5-0.8-9-0.5-13.5-0.6
		c-2.8,0-5.6,0-8.4,0c-2.7,0-2.8,0-2.7,2.6c0.1,25.4-0.3,50.7,0.3,76.1c0,1.5,0,3,0.4,4.5c0.9,3.6,2.7,5.3,6.4,5.8
		c2.4,0.3,4.9,0.3,7.4,0.3c1.3,0,2.3,0.1,2.2,1.8c-0.1,1.7-1,1.6-2.2,1.6c-9.2,0-18.5,0-27.7,0c-5.3,0-10.5,0-15.8,0
		c-1.5,0-1.8-0.6-1.8-1.9c0-1.1,0.5-1.5,1.6-1.5c2.3,0,4.5,0,6.8-0.2c5.4-0.4,7.4-2.3,8.2-7.6c0.2-1.6,0.3-3.2,0.3-4.8
		c0.1-24.7,0.1-49.4,0.1-74.2c0-2.4,0-2.5-2.5-2.5c-7.2,0.1-14.4-0.4-21.6,0.4c-3.3,0.4-5.6,1.9-7.4,4.5c-2.7,3.8-3.8,8.1-4.7,12.6
		c-0.2,0.8,0,1.8-1,2.2c-1.5,0.6-2.7-0.1-2.7-1.8c0.1-6.4,0.3-12.9,0.4-19.3c0-1.8,0.9-1.9,2.2-1.9c6.8,0,13.5,0,20.3,0
		C301.9,100.7,309.9,100.7,317.8,100.7z"/>
	<path class="st0" d="M393.3,100.7c6.6,0,13.1,0,19.7,0c0.9,0,2-0.3,2.1,1.3c0,1.2-0.1,2.1-1.7,2c-2.6-0.1-5.1,0-7.7,0.5
		c-2.5,0.5-3.9,2-4.6,4.4c-0.5,1.7-0.6,3.4-0.7,5.1c-0.4,10.5-0.3,21.1-0.2,31.6c0,12.5-0.2,24.9,0.2,37.4
		c0.3,7.8,2.3,9.8,10.1,10.2c1,0.1,1.9,0.1,2.9,0.1c1.2-0.1,1.7,0.5,1.7,1.7c0,1.3-0.6,1.7-1.8,1.7c-3.9,0-7.7,0-11.6,0
		c-9.2,0-18.5,0-27.7,0c-0.9,0-2,0.5-2.5-0.8c-0.5-1.4,0.2-2.4,1.8-2.5c1.8-0.1,3.7-0.1,5.5-0.3c4.3-0.5,6.3-2.4,7-6.7
		c0.3-1.7,0.5-3.4,0.5-5.1c0-21.8,0-43.6,0-65.5c0-1.9-0.2-3.9-0.5-5.8c-0.6-3.4-2-4.8-5.4-5.5c-2.3-0.5-4.7-0.5-7.1-0.5
		c-1.4,0-1.8-0.5-1.8-1.9c0-1.5,0.9-1.4,1.9-1.4C380,100.7,386.7,100.7,393.3,100.7z"/>
	<path class="st0" d="M1390.6,168.9c0,0.9-0.2,2.6-0.6,4.3c-2.1,8.4-6.1,15.8-12,22.1c-2.4,2.5-5.3,4.3-8.8,5.1
		c-8,1.9-14.3-2.1-16.1-10.2c-0.9-4.4-0.1-8.5,1-12.7c2.8-10.1,8.2-18.8,15-26.7c0.5-0.6,1-1.1,1.4-1.7c1.8-2.5,2.9-2.8,5.7-2
		c4.8,1.4,8.4,4.2,10.9,8.5C1389.4,159.4,1390.6,163.6,1390.6,168.9z M1382.9,167c0.3-4.7-1.6-8.3-5.7-10.8
		c-1.1-0.7-1.9-0.7-2.7,0.4c-5.4,7.2-10.5,14.6-13.6,23.2c-0.7,1.9-1,3.9-1,6c0.1,2.6,0.8,5,3.3,6.2c2.3,1.1,4.4-0.1,6.2-1.5
		c5.6-4.4,9.9-9.8,12.2-16.6C1382.5,171.7,1382.9,169.4,1382.9,167z"/>
	<path class="st0" d="M1184.7,109.1c1.9,0.1,3.3,0.9,4,2.5c0.8,1.7,0.5,3.1-0.8,4.4c-0.4,0.4-1,0.8-1.5,1.1c-4.3,2.6-8.6,5.2-13,7.7
		c-2.3,1.3-4.3,1-5.6-0.9c-1.3-1.9-1.1-4.2,1.1-5.6c4.8-3.1,9.7-6,14.5-8.9C1183.8,109.2,1184.4,109.2,1184.7,109.1z"/>
	<path class="st1" d="M865,159c-0.1,0.4-0.3,1.1-0.5,1c-0.5-0.3-0.3-0.9,0-1.4C864.6,158.7,864.8,158.8,865,159z"/>
	<path class="st1" d="M1029.8,163.6c-0.1,0.1-0.1,0.2-0.1,0.2c-0.1-0.1-0.2-0.2-0.3-0.2c0.1-0.1,0.2-0.2,0.2-0.2
		C1029.7,163.4,1029.8,163.6,1029.8,163.6z"/>
	<path class="st2" d="M451.3,125.2c0-6.4,0-12.9,0-19.3c0-2.5,0-2.5,2.3-2.7c5.4-0.4,10.7-0.1,16,1c7.2,1.4,11.5,5.8,13.4,12.8
		c1.4,5.5,1.5,11,0.1,16.5c-1.7,6.2-5.6,10.1-11.9,11.9c-5,1.4-10.2,1.3-15.3,1.6c-4.6,0.3-4.6,0.3-4.6-4.4
		C451.3,136.8,451.3,131,451.3,125.2z"/>
	<path class="st3" d="M1097.8,343.4c0.3,3.1,0.6,6.2,0.9,9.2c0.3,2.7,0.5,5.3,0.4,8c-0.2,2.7-2.2,4.2-4.9,3.6
		c-2.7-0.6-5.2-1.9-7.8-3c-2.7-1.1-5.3-2.4-8.1-3.1c-1.4-0.7-2.8-1.3-4.1-2c-0.9-0.5-1.6-0.2-2.3,0.1c-0.2-1.8-2-1.8-3.1-2.3
		c-3.6-1.6-7.4-3-10.9-4.7c-4.6-2.2-7-6.3-7.8-11.1c-0.4-2.4-0.6-4.9-0.9-7.3c-0.3-2.5-0.1-5.2-1.1-7.6c0.2-2.2-0.3-4.3-0.7-6.3
		c-0.5-4.7-1-9.3-1.5-14c0-0.3-0.2-0.6-0.2-0.9c-0.7-5.2,2.3-7.5,7.2-5.6c3.7,1.5,7.3,3,11,4.5c1.2,0.5,2.3,1.1,3.6,1.2
		c1.8,1.1,3.6,2.1,5.8,2c0.5,1.2,1.8,1.4,2.9,1.9c3.4,1.4,6.7,2.8,10.1,4.2c4.1,1.7,6.8,4.7,8.4,8.8c0.9,2.3,1,4.8,1.3,7.2
		c0.5,3.7,0.5,7.4,1.3,11.1C1096.8,339.3,1097.7,341.3,1097.8,343.4z"/>
	<path class="st4" d="M1097.1,337.1c-0.8-3.7-0.8-7.4-1.3-11.1c-0.3-2.4-0.4-4.9-1.3-7.2c-1.6-4.1-4.3-7.1-8.4-8.8
		c-3.4-1.4-6.7-2.8-10.1-4.2c-1.1-0.4-2.3-0.6-2.8-1.9c1.1-0.5,2.2-0.9,3.2-1.4c2.6-1.3,5.4-2.1,7.7-3.8c1.1,0,2-0.6,3-1
		c20.2-9,40.4-18,60.6-27c1.5-0.7,2.9-1.5,4.5-1.6c1.2-0.1,1.6,0.5,1.1,1.6c-0.6,1.4-1.7,2.5-2.7,3.6
		c-13.8,16.2-27.5,32.5-41.3,48.7c-1,1.1-1.9,2.4-2.8,3.5c-0.9,0.5-1.3,1.4-2,2.1C1102.1,331.4,1100,334.6,1097.1,337.1z"/>
	<path class="st4" d="M1048,323.1c1,2.4,0.8,5.1,1.1,7.6c0.3,2.4,0.5,4.9,0.9,7.3c0.8,4.8,3.1,8.9,7.8,11.1c3.6,1.7,7.3,3,10.9,4.7
		c1.2,0.5,2.9,0.5,3.1,2.3c-4.3,2-8.7,3.7-12.9,5.9c-5.4,1.9-10.4,4.5-15.6,6.8c-15.3,6.8-30.6,13.7-45.9,20.5
		c-1.4,0.6-2.7,1.4-4.2,1.6c-1.1,0.2-1.6-0.5-1.2-1.6c0.5-1.3,1.5-2.3,2.4-3.4c10.2-12.1,20.4-24.1,30.7-36.1
		c4.5-5.3,9-10.7,13.5-16c0.8-0.9,1.5-1.7,2.3-2.6C1043.3,328.5,1045.3,325.5,1048,323.1z"/>
	<path class="st5" d="M1059,362.1c4.2-2.3,8.6-4,12.9-5.9c0.8-0.2,1.5-0.5,2.3-0.1c1.3,0.7,2.7,1.3,4.1,2c-2.2,5.7-4.4,11.4-6.6,17
		c-2.5,6.4-4.9,12.8-7.4,19.2c-0.4,1-0.6,2.8-1.9,2.7c-1.5-0.2-0.8-1.9-0.9-3c-1-6.8-1.1-13.6-1.8-20.4
		C1059.4,369.8,1059,365.9,1059,362.1z"/>
	<path class="st5" d="M1097.1,337.1c2.9-2.5,5.1-5.7,7.6-8.6c0.6-0.7,1.1-1.6,2-2.1c4.2,2.3,8.9,3.6,13.3,5.4
		c4.7,1.9,9.4,3.6,14,5.5c1.2,0.5,2.6,0.9,3.7,2.5c-6.9,1.6-13.6,1.4-20.2,2.1c-6.6,0.7-13.2,1.1-19.8,1.5
		C1097.7,341.3,1096.8,339.3,1097.1,337.1z"/>
	<path class="st5" d="M1048,323.1c-2.7,2.4-4.7,5.4-7.2,8.1c-0.8,0.9-1.6,1.7-2.3,2.6c-0.4-0.8-1.1-1.2-2-1.5
		c-8.4-3.2-16.8-6.4-25.1-9.7c-0.6-0.2-1.2-0.4-1.8-0.8c-0.6-0.3-1.6-0.5-1.3-1.5c0.3-0.8,1.1-0.9,1.9-0.9c3.8,0.2,7.5-0.5,11.2-0.8
		c4-0.3,8.1-0.7,12.1-1c4.6-0.3,9.1-1.1,13.7-0.9C1047.7,318.9,1048.2,320.9,1048,323.1z"/>
	<path class="st5" d="M1084.1,298.8c-2.4,1.7-5.2,2.5-7.7,3.8c-1,0.5-2.1,1-3.2,1.4c-2.2,0.1-4-0.9-5.8-2c1.1-4.5,3.2-8.6,4.7-13
		c2.3-6.6,5-13,7.5-19.5c0.3-0.8,0.4-2.2,1.6-2c1.1,0.2,0.9,1.5,1,2.5c0.8,7.2,0.9,14.5,1.8,21.7
		C1084.3,294,1084.1,296.4,1084.1,298.8z"/>
</g>
</svg>
